<?xml version="1.0" standalone="no"?><!DOCTYPE svg PUBLIC "-//W3C//DTD SVG 1.1//EN" "http://www.w3.org/Graphics/SVG/1.1/DTD/svg11.dtd"><svg t="1499305969314" class="icon" style="" viewBox="0 0 1024 1024" version="1.1" xmlns="http://www.w3.org/2000/svg" p-id="1282" xmlns:xlink="http://www.w3.org/1999/xlink" width="128" height="128"><defs><style type="text/css"></style></defs><path d="M462.6432 709.632c0.256-131.2768 0.3584-262.5536-0.0512-393.8304 86.7328 0.0512 173.5168-0.2048 260.2496 0.1024-0.8192 31.232 1.3824 62.5664-1.3312 93.696 1.6896 10.1888 1.5872 20.5312 0.0512 30.72 4.3008 89.6512-3.1744 179.456 1.4336 269.0048-10.5984 0.256-21.1456 0.3584-31.744 0.3072 0.512-45.056 0.1536-90.112 0.256-135.2192-66.3552 0.0512-132.7616 0.256-199.1168-0.1024 0.4096 45.1072 0.0512 90.2656 0.2048 135.3728-9.984 0-19.968 0-29.952-0.0512m29.7984-349.8496c0.1536 16.3328 0.1536 32.6656 0.0512 48.9984 30.6176 0.0512 61.2864 0 91.904 0.0512v-49.152c-30.6688 0.0512-61.2864-0.0512-91.9552 0.1024m108.0832 0c0.1536 16.3328 0.2048 32.6656 0.0512 48.9984h90.9312v-49.1008c-30.3104 0.0512-60.6208-0.0512-90.9824 0.1024M492.8 438.784c-0.3584 17.3568-0.2048 34.7136-0.3072 52.0704 30.6176-0.0512 61.2864-0.2048 91.904 0.1536-0.0512-17.408 0-34.7648-0.0512-52.1216-30.5152 0.1024-61.0304 0.3072-91.5456-0.1024m107.7248 52.0704c30.3104-0.1024 60.6208-0.1024 90.9312 0 0.1536-17.3568 0.3072-34.7136-0.8704-52.0704-30.0032 0.256-60.0064 0.512-90.0096-0.1536 0.1024 17.408 0.1536 34.816-0.0512 52.224zM165.888 518.5024c95.7952 0.1024 191.5904 0.1024 287.3856 0-0.0512 63.6928-0.1536 127.4368 0.1024 191.1296-10.2912 0.0512-20.48 0.0512-30.72 0 0.4096-45.1072-0.4096-90.2144 0.4096-135.3216-75.776 0.3584-151.6032 0.2048-227.4304 0.0512 0.1024 45.1072-0.0512 90.2144 0.0512 135.3216-9.9328 0-19.8656 0-29.8496-0.0512 0.3072-63.6928 0.2048-127.4368 0.0512-191.1296zM733.6448 558.7968c45.9264-0.0512 91.8016 0 137.728-0.0512v151.5008l-18.2272-1.6384c1.024-2.4064 3.1744-7.2704 4.1984-9.728-34.7648-7.9872-71.6288-1.28-107.264-3.6352-0.0512 3.6352-0.1024 10.8544-0.1536 14.4896-5.4784-0.0512-10.9568-0.1024-16.4352-0.2048 0.4608-50.2272 0.1536-100.5056 0.1536-150.7328m16.384 83.712l-0.8704 9.5744c36.3008-0.0512 72.6016 0.4096 108.9024-0.3072-1.3824-2.56-4.1984-7.7312-5.5808-10.3424-34.1504 1.3824-68.352-0.8192-102.4512 1.0752m-0.3072 27.0336c0.1536 2.7136 0.4096 8.0896 0.512 10.752 34.56-0.6656 69.0688-0.4608 103.5776-0.1024l0.4096-10.8032c-34.816 0.4608-69.632 0.1536-104.4992 0.1536z" p-id="1283" fill="#ffffff"></path><path d="M205.1072 585.3696c68.9664-0.1024 137.8816 0.1024 206.7968-0.1024-0.4608 41.472-0.2048 82.8928-0.1024 124.3648H380.928c0.256-22.6816 0.1536-45.312 0.2048-67.9936-21.3504 0.3072-42.7008 0.256-64.0512 0.1024 0.0512 22.6304-0.1024 45.2608 0.256 67.8912l-16.64-0.1536c0.2048-22.5792-0.0512-45.2096 0.3072-67.7888-21.6064 0.256-43.2128 0.2048-64.8192 0 0.3584 22.5792 0.1536 45.1072 0.3072 67.6864-10.5472 0.2048-21.0432 0.256-31.5904 0.2048 0.5632-41.4208 0.256-82.7904 0.2048-124.2112zM502.7328 585.1648c59.6992 0.256 119.4496 0.3072 179.2 0 0.0512 41.5232-0.0512 82.9952 0.0512 124.5184-9.984 0-19.9168 0-29.8496-0.0512 0.2048-22.7328 0.0512-45.4144 0.256-68.1472-17.3056 0.4608-34.6624 0.4096-51.968 0.256 0.4096 22.6304 0.1536 45.2608 0.3072 67.9424l-16.64-0.1536c0.512-22.6304 0.256-45.312 0.3072-67.9424-16.9472 0.3584-33.8432 0.3072-50.7904 0.1024 0.256 22.5792 0.0512 45.1584 0.256 67.7376-10.3936 0.1536-20.7872 0.2048-31.1808 0.1536 0.4608-41.472 0.4096-82.944 0.0512-124.416zM98.3552 675.9424c12.6976-19.8144 35.3792-26.8288 57.6-29.184-0.1536 20.9408-0.1536 41.8816 0.0512 62.8224-21.248 0.1024-42.4448 0.256-63.6416-0.1536 0.768-11.3664 3.328-22.4768 5.9904-33.4848zM880.8448 709.5296c0.768-20.6336-0.8704-41.4208 1.6384-61.952 22.272 1.8944 46.0288 10.24 57.9584 30.464 3.0208 10.24 1.2288 21.1456 1.6896 31.6416-20.4288-0.0512-40.8576 0.0512-61.2864-0.1536z" p-id="1284" fill="#ffffff"></path></svg>