<?xml version="1.0" standalone="no"?><!DOCTYPE svg PUBLIC "-//W3C//DTD SVG 1.1//EN" "http://www.w3.org/Graphics/SVG/1.1/DTD/svg11.dtd"><svg t="1497009291812" class="icon" style="" viewBox="0 0 1024 1024" version="1.1" xmlns="http://www.w3.org/2000/svg" p-id="1077" xmlns:xlink="http://www.w3.org/1999/xlink" width="200" height="200"><defs><style type="text/css"></style></defs><path d="M797.952282 259.759559c-194.68419 0-276.64935-73.813804-276.965468-74.558942a9.799691 9.799691 0 0 0-8.873914-6.119162h-0.24838a9.844851 9.844851 0 0 0-8.896494 6.006263c-0.293539 0.745138-82.913517 74.694421-276.897728 74.694421a9.799691 9.799691 0 0 0-9.777112 9.777111l48.998457 331.06699c15.986593 134.034487 232.889438 239.166659 242.711709 243.479427a9.664212 9.664212 0 0 0 7.835237 0c9.935171-4.312767 229.705667-109.467519 242.824608-243.479427l48.953297-331.06699a9.754531 9.754531 0 0 0-9.664212-9.799691zM508.861389 771.962778c-7.654598-3.34183-175.468666-84.290893-190.010143-190.552061l-48.998457-259.195061a7.677178 7.677178 0 0 1 7.677178-7.677177c151.872635 0 227.221874-57.849791 227.379934-58.459449a7.677178 7.677178 0 0 1 7.044939-4.696626h0.06774l0.13548 0.045159a7.496538 7.496538 0 0 1 6.864299 4.786946c0.270959 0.541918 75.0557 58.323969 227.492834 58.32397 4.199868 0 7.541698 3.45473 7.541698 7.677177l-48.953297 259.195061c-15.625314 103.190298-182.287806 187.210232-190.077883 190.552061a6.81914 6.81914 0 0 1-3.003131 0.654818 6.999779 6.999779 0 0 1-3.161191-0.654818z m208.028931-252.646879l37.143991-197.145403a7.564278 7.564278 0 0 0-7.519118-7.654597c-152.414553 0-227.221874-57.827211-227.492834-58.346549a7.564278 7.564278 0 0 0-6.864299-4.786946l-0.13548-0.04516v259.940198l204.86774 8.038457z m-409.73548 0h0.04516l-37.256891-197.145403 37.211731 197.145403z m11.718986 62.072238c0 106.148269 182.332966 187.210232 190.100463 190.552061a6.412701 6.412701 0 0 0 3.048291 0.654819V511.277442l-204.82258 8.038457 11.673826 62.072238z" fill="#ffffff" p-id="1078"></path></svg>