<?xml version="1.0" standalone="no"?><!DOCTYPE svg PUBLIC "-//W3C//DTD SVG 1.1//EN" "http://www.w3.org/Graphics/SVG/1.1/DTD/svg11.dtd"><svg t="1497841429802" class="icon" style="" viewBox="0 0 2048 1024" version="1.1" xmlns="http://www.w3.org/2000/svg" p-id="2997" xmlns:xlink="http://www.w3.org/1999/xlink" width="64" height="32"><defs><style type="text/css"></style></defs><path d="M34.133333 819.239424C34.133333 913.409898 110.579545 989.866667 204.801307 989.866667L1843.198693 989.866667C1937.278751 989.866667 2013.866667 913.367334 2013.866667 819.239424L2013.866667 204.760574C2013.866667 110.590101 1937.420455 34.133333 1843.198693 34.133333L204.801307 34.133333C110.721248 34.133333 34.133333 110.632668 34.133333 204.760574L34.133333 819.239424ZM204.801307 0 1843.198693 0C1956.307333 0 2048 91.774344 2048 204.760574L2048 819.239424C2048 932.325567 1956.023054 1024 1843.198693 1024L204.801307 1024C91.692669 1024 0 932.225655 0 819.239424L0 204.760574C0 91.674432 91.976948 0 204.801307 0Z" p-id="2998" fill="#ffffff"></path><path d="M665.053867 655.906133 665.053867 863.163733C665.053867 885.555313 653.858246 896.750933 631.466667 896.750933 609.075087 896.750933 597.879467 885.555313 597.879467 863.163733L597.879467 655.906133 283.306667 655.906133C272.383945 655.906133 263.509367 653.175494 256.682667 647.714133 249.855966 642.252773 246.442667 634.060855 246.442667 623.138133 246.442667 610.577005 249.855966 602.11202 256.682667 597.742933 263.509367 593.373846 272.383945 591.189333 283.306667 591.189333L597.879467 591.189333 597.879467 241.390933 332.458667 241.390933C321.535945 241.390933 312.661367 238.660294 305.834667 233.198933 299.007966 227.737573 295.594667 219.545655 295.594667 208.622933 295.594667 196.061804 299.007966 187.596822 305.834667 183.227733 312.661367 178.858645 321.535945 176.674133 332.458667 176.674133L931.293867 176.674133C942.216588 176.674133 950.954633 178.858645 957.508267 183.227733 964.061901 187.596822 967.338667 196.061804 967.338667 208.622933 967.338667 219.545655 964.061901 227.737573 957.508267 233.198933 950.954633 238.660294 942.216588 241.390933 931.293867 241.390933L665.053867 241.390933 665.053867 591.189333 980.445867 591.189333C991.368588 591.189333 1000.106633 593.373846 1006.660267 597.742933 1013.213901 602.11202 1016.490667 610.577005 1016.490667 623.138133 1016.490667 634.060855 1013.213901 642.252773 1006.660267 647.714133 1000.106633 653.175494 991.368588 655.906133 980.445867 655.906133L665.053867 655.906133ZM905.079467 334.779733C897.979699 354.440632 891.289631 372.462851 885.009067 388.846933 878.728503 405.231015 872.038434 421.614851 864.938667 437.998933 857.838899 454.383015 850.193108 471.176448 842.001067 488.379733 833.809026 505.583019 824.524851 524.560964 814.148267 545.314133 806.502362 560.605942 798.310444 569.890116 789.572267 573.166933 780.834089 576.44375 771.003788 575.078431 760.081067 569.070933 750.796752 564.701846 746.154667 557.192588 746.154667 546.542933 746.154667 535.893279 749.704499 524.014998 756.804267 510.907733 768.273125 490.154564 778.239959 471.176619 786.705067 453.973333 795.170174 436.770048 802.815966 420.522742 809.642667 405.230933 816.469367 389.939125 822.476773 374.920608 827.665067 360.174933 832.853361 345.429258 837.905043 330.137679 842.820267 314.299733 847.735491 296.823379 854.015962 285.354694 861.661867 279.893333 869.307771 274.431973 878.591945 273.066653 889.514667 275.797333 902.075795 279.07415 909.585053 284.808492 912.042667 293.000533 914.50028 301.192574 912.179234 315.118835 905.079467 334.779733L905.079467 334.779733ZM502.852267 515.822933C508.313627 534.937696 509.95201 548.181296 507.767467 555.554133 505.582923 562.926971 498.483261 568.52478 486.468267 572.347733 475.545545 576.170687 466.261371 575.351494 458.615467 569.890133 450.969562 564.428773 444.689091 552.413959 439.773867 533.845333 429.943419 496.161946 419.430455 460.936697 408.234667 428.168533 397.038879 395.400369 383.522212 362.90576 367.684267 330.683733 353.484728 300.64625 355.669241 280.712582 374.237867 270.882133 383.522181 266.513045 392.669822 266.239981 401.681067 270.062933 410.692311 273.885886 419.020762 284.262315 426.666667 301.192533 433.220301 317.576615 439.773833 333.687387 446.327467 349.525333 452.881101 365.363279 459.298103 381.883648 465.578667 399.086933 471.859231 416.290219 478.139703 434.448971 484.420267 453.563733 490.700831 472.678496 496.844769 493.431354 502.852267 515.822933L502.852267 515.822933ZM1811.114667 877.090133C1806.199443 886.920581 1799.918971 892.518393 1792.273067 893.883733 1784.627162 895.249073 1771.793155 891.835774 1753.770667 883.643733 1712.264325 864.528971 1668.164499 845.277962 1621.469867 825.890133 1574.775235 806.502304 1526.579449 786.978232 1476.881067 767.317333 1427.728821 796.262543 1373.798694 820.428704 1315.089067 839.816533 1256.37944 859.204362 1188.249989 873.267156 1110.698667 882.005333 1089.945498 884.736014 1076.155767 883.643757 1069.329067 878.728533 1062.502366 873.813309 1058.816003 865.075261 1058.269867 852.514133 1057.72373 839.953005 1061.546626 830.805361 1069.738667 825.070933 1077.930708 819.336506 1093.222287 815.377077 1115.613867 813.192533 1139.643853 811.00799 1164.902267 807.321627 1191.389867 802.133333 1217.877466 796.945039 1243.95507 791.074167 1269.623467 784.520533 1295.291863 777.966899 1319.594551 770.730708 1342.532267 762.811733 1365.469983 754.892759 1385.676711 746.837374 1403.153067 738.645333 1369.292629 725.538068 1335.842297 712.840595 1302.801067 700.552533 1269.759836 688.264472 1237.674824 676.386191 1206.545067 664.917333 1181.968944 655.633019 1168.58881 643.754738 1166.404267 629.282133 1164.219723 614.809528 1171.319385 599.381415 1187.703467 582.997333 1201.903005 569.343932 1215.692732 555.281138 1229.073067 540.808533 1242.453402 526.335928 1255.423939 511.453942 1267.985067 496.162133L1089.399467 496.162133C1080.115152 496.162133 1073.152024 493.568027 1068.509867 488.379733 1063.867709 483.191439 1061.546667 476.228311 1061.546667 467.490133 1061.546667 447.829234 1070.830841 437.998933 1089.399467 437.998933L1315.498667 437.998933C1332.975022 415.061217 1349.768451 391.577719 1365.879467 367.547733 1381.990482 343.517747 1397.418592 319.215056 1412.164267 294.638933 1419.264034 283.170076 1426.773292 274.841626 1434.692267 269.653333 1442.611241 264.465041 1452.031945 264.874637 1462.954667 270.882133 1473.877388 276.88963 1479.884793 284.125824 1480.977067 292.590933 1482.06934 301.056042 1478.519508 312.115132 1470.327467 325.768533 1458.858609 344.337159 1446.707265 363.042038 1433.873067 381.883733 1421.038868 400.725429 1407.795268 419.430308 1394.141867 437.998933L1811.114667 437.998933C1830.229429 437.998933 1839.786667 447.829234 1839.786667 467.490133 1839.786667 476.228311 1837.329091 483.191439 1832.413867 488.379733 1827.498643 493.568027 1820.398981 496.162133 1811.114667 496.162133L1698.884267 496.162133C1672.669737 548.045059 1646.182533 592.691012 1619.421867 630.101333 1592.6612 667.511654 1566.173996 698.231347 1539.959467 722.261333 1583.104215 739.191552 1625.156062 755.848451 1666.116267 772.232533 1707.076471 788.616615 1746.124616 804.727388 1783.261867 820.565333 1800.738222 828.211238 1811.251183 836.539689 1814.801067 845.550933 1818.35095 854.562178 1817.122164 865.075139 1811.114667 877.090133L1811.114667 877.090133ZM1805.380267 374.101333C1799.918906 387.754735 1793.638434 396.902376 1786.538667 401.544533 1779.438899 406.186691 1769.608595 406.050157 1757.047467 401.134933 1748.309289 397.858116 1742.84801 392.806434 1740.663467 385.979733 1738.478923 379.153033 1741.209562 366.455559 1748.855467 347.886933 1754.316827 334.233532 1758.139723 322.491782 1760.324267 312.661333 1762.50881 302.830884 1763.601067 294.092838 1763.601067 286.446933 1763.601067 276.070348 1761.82615 268.970686 1758.276267 265.147733 1754.726383 261.324781 1749.128571 259.413333 1741.482667 259.413333L1179.511467 259.413333C1168.588745 259.413333 1161.21602 261.324781 1157.393067 265.147733 1153.570113 268.970686 1151.658667 276.343412 1151.658667 287.266133L1151.658667 373.282133C1151.658667 382.020311 1149.064561 389.256506 1143.876267 394.990933 1138.687973 400.725361 1130.905651 403.592533 1120.529067 403.592533 1111.244752 403.592533 1104.145091 400.452297 1099.229867 394.171733 1094.314643 387.891169 1091.857067 380.928038 1091.857067 373.282133L1091.857067 279.893333C1091.857067 264.601524 1092.949323 251.767519 1095.133867 241.390933 1097.31841 231.014348 1101.277839 222.685898 1107.012267 216.405333 1112.746694 210.124769 1120.802082 205.755746 1131.178667 203.298133 1141.555251 200.840521 1154.935385 199.611733 1171.319467 199.611733L1422.813867 199.611733C1420.083186 191.965828 1417.352547 184.45657 1414.621867 177.083733 1411.891186 169.710896 1409.160547 163.02083 1406.429867 157.013333 1401.514643 145.544476 1400.422386 135.987238 1403.153067 128.341333 1405.883747 120.695428 1411.891152 114.961086 1421.175467 111.138133 1431.005914 106.769045 1440.153559 106.769045 1448.618667 111.138133 1457.083774 115.507222 1463.50078 123.426076 1467.869867 134.894933 1471.146684 144.179246 1474.28692 154.009548 1477.290667 164.386133 1480.294414 174.762719 1483.707713 186.504468 1487.530667 199.611733L1746.397867 199.611733C1798.826929 199.611733 1825.041067 226.645063 1825.041067 280.712533 1825.041067 293.273663 1823.12962 308.565243 1819.306667 326.587733 1815.483713 344.610222 1810.841627 360.447932 1805.380267 374.101333L1805.380267 374.101333ZM1259.793067 619.042133C1294.199637 631.603261 1329.151823 644.164205 1364.650667 656.725333 1400.149511 669.286461 1435.647823 682.393532 1471.146667 696.046933 1503.368694 671.47081 1532.450004 642.526034 1558.391467 609.211733 1584.33293 575.897433 1608.772151 538.214612 1631.709867 496.162133L1349.085867 496.162133C1334.340192 514.730759 1319.185145 532.616448 1303.620267 549.819733 1288.055388 567.023019 1272.354212 583.816451 1256.516267 600.200533 1247.778089 608.938711 1248.870345 615.21918 1259.793067 619.042133L1259.793067 619.042133Z" p-id="2999" fill="#ffffff"></path></svg>